<?xml version="1.0" encoding="utf-8"?>
<!-- Generator: Adobe Illustrator 24.2.1, SVG Export Plug-In . SVG Version: 6.00 Build 0)  -->
<svg version="1.1" xmlns="http://www.w3.org/2000/svg" xmlns:xlink="http://www.w3.org/1999/xlink" x="0px" y="0px"
	 viewBox="0 0 96 96" style="enable-background:new 0 0 96 96;" xml:space="preserve">
<style type="text/css">
	.st0{fill:#FFFFFF;stroke:#2D2D2D;stroke-width:4;stroke-miterlimit:10;}
	.st1{fill:#FFFFFF;stroke:#2D2D2D;stroke-miterlimit:10;}
	.st2{fill:#FFFFFF;stroke:#2D2D2D;stroke-width:3.8644;stroke-miterlimit:10;}
	.st3{fill:#FFFFFF;}
	.st4{fill:#2D2D2D;}
	.st5{fill:#990000;}
	.st6{fill:none;stroke:#A7A9AC;stroke-width:0.25;stroke-miterlimit:10;}
	.st7{fill:none;stroke:#2D2D2D;stroke-width:0.25;stroke-linecap:round;stroke-miterlimit:10;}
	.st8{fill:#2770B8;}
	.st9{fill:#3DDB85;}
	.st10{fill-rule:evenodd;clip-rule:evenodd;fill:#2D2D2D;}
	.st11{clip-path:url(#SVGID_2_);}
	.st12{clip-path:url(#SVGID_4_);}
	.st13{clip-path:url(#SVGID_6_);}
	.st14{clip-path:url(#SVGID_8_);}
	.st15{fill:#FF9366;}
	.st16{fill:#D9472D;}
	.st17{fill:#C9CACA;}
	.st18{fill:#727171;}
	.st19{fill:none;stroke:#A7A9AC;stroke-width:0.25;stroke-miterlimit:10;stroke-dasharray:1.9542,1.9542;}
	.st20{fill:none;stroke:#A7A9AC;stroke-width:0.25;stroke-miterlimit:10;stroke-dasharray:1.9858,1.9858;}
	.st21{fill:none;stroke:#A7A9AC;stroke-width:0.25;stroke-miterlimit:10;stroke-dasharray:1.961,1.961;}
	.st22{fill:none;stroke:#A7A9AC;stroke-width:0.25;stroke-miterlimit:10;stroke-dasharray:2;}
	.st23{fill:none;stroke:#A7A9AC;stroke-width:0.25;stroke-miterlimit:10;stroke-dasharray:2.0128,2.0128;}
	.st24{fill:none;stroke:#A7A9AC;stroke-width:0.25;stroke-miterlimit:10;stroke-dasharray:1.9634,1.9634;}
	.st25{fill:none;stroke:#A7A9AC;stroke-width:0.25;stroke-miterlimit:10;stroke-dasharray:1.9559,1.9559;}
	.st26{fill:none;stroke:#A7A9AC;stroke-width:0.25;stroke-miterlimit:10;stroke-dasharray:1.9873,1.9873;}
	.st27{fill:none;stroke:#A7A9AC;stroke-width:0.25;stroke-miterlimit:10;stroke-dasharray:1.9862,1.9862;}
	.st28{fill:none;stroke:#A7A9AC;stroke-width:0.25;stroke-miterlimit:10;stroke-dasharray:1.9872,1.9872;}
	.st29{fill:none;stroke:#A7A9AC;stroke-width:0.25;stroke-miterlimit:10;stroke-dasharray:1.9871,1.9871;}
	.st30{fill:none;stroke:#A7A9AC;stroke-width:0.25;stroke-miterlimit:10;stroke-dasharray:1.9557,1.9557;}
	.st31{fill:none;stroke:#A7A9AC;stroke-width:0.25;stroke-miterlimit:10;stroke-dasharray:1.9632,1.9632;}
	.st32{fill:none;stroke:#A7A9AC;stroke-width:0.25;stroke-miterlimit:10;stroke-dasharray:2.0092,2.0092;}
	.st33{fill:none;stroke:#A7A9AC;stroke-width:0.25;stroke-miterlimit:10;stroke-dasharray:2.0061,2.0061;}
	.st34{fill:none;stroke:#A7A9AC;stroke-width:0.25;stroke-miterlimit:10;stroke-dasharray:1.9995,1.9995;}
	.st35{fill:none;stroke:#A7A9AC;stroke-width:0.25;stroke-miterlimit:10;stroke-dasharray:2.0065,2.0065;}
	.st36{display:none;}
</style>
<g id="Layer_1">
	<g>
		<g>
			<path class="st3" d="M87.8,18.77H16.78c-1.69,0-3.06,1.37-3.06,3.06v40.11c0,1.69,1.37,3.06,3.06,3.06H87.8
				c1.69,0,3.06-1.37,3.06-3.06V21.83C90.86,20.14,89.49,18.77,87.8,18.77z"/>
			<path class="st4" d="M87.8,13.63H16.78c-4.52,0-8.2,3.68-8.2,8.2v40.11c0,4.52,3.68,8.2,8.2,8.2H87.8c4.52,0,8.2-3.68,8.2-8.2
				V21.83C96,17.31,92.32,13.63,87.8,13.63z M90.86,61.94c0,1.69-1.37,3.06-3.06,3.06H16.78c-1.69,0-3.06-1.37-3.06-3.06V21.83
				c0-1.69,1.37-3.06,3.06-3.06H87.8c1.69,0,3.06,1.37,3.06,3.06V61.94z"/>
		</g>
		<g>
			<path class="st5" d="M37.31,64.01c0.8-1.52,1.24-3.24,1.24-5.07c0-6.07-4.97-11-11.09-11c-3.95,0-7.42,2.05-9.39,5.14
				c-1.11-0.39-2.3-0.61-3.54-0.61c-5.79,0-10.49,4.66-10.49,10.4c0,1.42,0.29,2.77,0.8,4C1.99,68.13,0,70.97,0,74.27
				c0,4.47,3.66,8.1,8.17,8.1c0.14,0,0.29,0,0.43-0.01h23.72c0.15,0.01,0.29,0.01,0.44,0.01c5.42,0,9.82-4.36,9.82-9.74
				C42.58,68.89,40.44,65.64,37.31,64.01z"/>
			<path class="st3" d="M9.04,64.57c0-1.29-0.04-2.39-0.09-3.3h2.73l0.15,1.39h0.06c0.45-0.65,1.36-1.63,3.15-1.63
				c1.34,0,2.41,0.68,2.86,1.75h0.04c0.38-0.53,0.85-0.95,1.34-1.25c0.58-0.34,1.21-0.51,1.98-0.51c2,0,3.52,1.39,3.52,4.48v6.09
				h-3.15v-5.62c0-1.5-0.49-2.37-1.53-2.37c-0.75,0-1.28,0.51-1.49,1.12c-0.09,0.23-0.13,0.57-0.13,0.82v6.04h-3.15v-5.79
				c0-1.31-0.47-2.2-1.49-2.2c-0.83,0-1.32,0.63-1.51,1.16c-0.11,0.25-0.13,0.55-0.13,0.8v6.02H9.04V64.57z"/>
			<path class="st3" d="M28.33,61.28l1.56,5.07c0.17,0.61,0.38,1.37,0.51,1.92h0.06c0.15-0.55,0.32-1.33,0.47-1.92l1.28-5.07h3.47
				l-2.43,6.8c-1.49,4.1-2.49,5.75-3.67,6.78c-1.13,0.97-2.32,1.31-3.13,1.42l-0.68-2.73c0.4-0.06,0.92-0.25,1.41-0.55
				c0.49-0.25,1.02-0.76,1.34-1.29c0.11-0.15,0.17-0.32,0.17-0.46c0-0.11-0.02-0.27-0.15-0.53l-3.81-9.45H28.33z"/>
		</g>
		<path class="st10" d="M78.69,44.62h3.77v-6.05h-3.77c-1.49,0-2.24-1.81-1.19-2.86l2.67-2.67l-4.28-4.28l-2.67,2.67
			c-1.06,1.06-2.86,0.31-2.86-1.19v-3.77h-6.05v3.77c0,1.49-1.81,2.24-2.86,1.19l-2.67-2.67l-4.28,4.28l2.67,2.67
			c1.06,1.06,0.31,2.86-1.19,2.86h-3.77v6.05h3.77c1.49,0,2.24,1.81,1.19,2.86l-2.67,2.67l4.28,4.28l2.67-2.67
			c1.06-1.06,2.86-0.31,2.86,1.19v3.77h6.05v-3.77c0-1.49,1.81-2.24,2.86-1.19l2.67,2.67l4.28-4.28l-2.67-2.67
			C76.44,46.43,77.19,44.62,78.69,44.62z M67.34,48.71c-3.93,0-7.11-3.18-7.11-7.11c0-3.93,3.18-7.11,7.11-7.11s7.11,3.18,7.11,7.11
			C74.45,45.53,71.27,48.71,67.34,48.71z"/>
	</g>
</g>
<g id="golden_ratio">
</g>
<g id="圖層_3" class="st36">
</g>
</svg>
