<svg xmlns="http://www.w3.org/2000/svg" width="129.082" height="105.935" viewBox="0 0 129.082 105.935">
  <g id="Group_1536" data-name="Group 1536" transform="translate(0.895)">
    <g id="Group_1535" data-name="Group 1535" transform="translate(0 27.257)">
      <circle id="Ellipse_111" data-name="Ellipse 111" cx="19.179" cy="19.179" r="19.179" transform="translate(20.246)" fill="#fff" stroke="#040000" stroke-miterlimit="10" stroke-width="1.79"/>
      <path id="Path_3810" data-name="Path 3810" d="M339.752,110.9a39.425,39.425,0,0,0-39.425,39.425h78.849A39.425,39.425,0,0,0,339.752,110.9Z" transform="translate(-300.327 -72.541)" fill="#fff" stroke="#040000" stroke-miterlimit="10" stroke-width="1.79"/>
    </g>
    <path id="Path_3811" data-name="Path 3811" d="M318,148.965h78.979l10.531-36.857H352.222l-10.531,36.857" transform="translate(-280.507 -43.926)" fill="#fff" stroke="#040000" stroke-miterlimit="10" stroke-width="1.79"/>
    <rect id="Rectangle_365" data-name="Rectangle 365" width="31.592" height="31.592" rx="2.482" transform="translate(76.121 3.839)" fill="#fff" stroke="#040000" stroke-miterlimit="10" stroke-width="1.79"/>
    <path id="Path_3812" data-name="Path 3812" d="M372.6,79.972,359.662,82l-9.089,9.089a7.251,7.251,0,0,0-9.953,10.538l4.833,4.833a7.25,7.25,0,0,0,10.254,0L367.5,94.664Z" transform="translate(-257.515 -79.972)" fill="#fff"/>
    <path id="Path_3813" data-name="Path 3813" d="M341.168,94.945l5.265,5.265,18.429-18.429" transform="translate(-254.517 -77.943)" fill="none" stroke="#e63c3b" stroke-miterlimit="10" stroke-width="1.79"/>
    <path id="Path_3814" data-name="Path 3814" d="M313.531,115.831v15.8h17.111a6.581,6.581,0,0,1,0,13.163H310.9" transform="translate(-288.47 -39.751)" fill="#fff" stroke="#040000" stroke-miterlimit="10" stroke-width="1.79"/>
  </g>
</svg>
