<svg xmlns="http://www.w3.org/2000/svg" width="142.782" height="114.095" viewBox="0 0 142.782 114.095">
  <g id="Group_1725" data-name="Group 1725" transform="translate(-1097.609 -6761.287)">
    <path id="Path_3829" data-name="Path 3829" d="M507.118,592.977a26.945,26.945,0,0,1,26.945,26.944H480.173A26.945,26.945,0,0,1,507.118,592.977Z" transform="translate(689.682 6254.566)" fill="#fff" stroke="#000" stroke-linejoin="round" stroke-width="1.79"/>
    <path id="Path_3830" data-name="Path 3830" d="M511.934,619.735H457.955l-7.2-25.19h37.785l7.2,25.19" transform="translate(686.189 6254.752)" fill="#fff" stroke="#000" stroke-linejoin="round" stroke-width="1.79"/>
    <path id="Path_3831" data-name="Path 3831" d="M514.752,599.37v10.8h-11.7a4.5,4.5,0,1,0,0,9h13.494" transform="translate(691.866 6255.325)" fill="#fff" stroke="#000" stroke-linejoin="round" stroke-width="1.79"/>
    <g id="Group_1553" data-name="Group 1553" transform="translate(1098.504 6800.779)">
      <circle id="Ellipse_117" data-name="Ellipse 117" cx="3.275" cy="3.275" r="3.275" transform="translate(31.893 20.176)" fill="#fff" stroke="#000" stroke-linejoin="round" stroke-width="1.79"/>
      <line id="Line_921" data-name="Line 921" y1="13.337" x2="10.143" transform="translate(37.141 7.504)" fill="#fff" stroke="#000" stroke-linecap="round" stroke-linejoin="round" stroke-width="1.79"/>
      <g id="Group_1552" data-name="Group 1552">
        <circle id="Ellipse_118" data-name="Ellipse 118" cx="9.629" cy="9.629" r="9.629" transform="translate(10.166)" fill="#fff" stroke="#000" stroke-linejoin="round" stroke-width="1.79"/>
        <path id="Path_3832" data-name="Path 3832" d="M436.19,568.392A19.794,19.794,0,0,0,416.4,588.185h39.588A19.793,19.793,0,0,0,436.19,568.392Z" transform="translate(-416.396 -549.134)" fill="#fff" stroke="#000" stroke-linejoin="round" stroke-width="1.79"/>
      </g>
      <path id="Path_3833" data-name="Path 3833" d="M444.9,588.049h39.653l5.287-18.5H462.086l-5.287,18.5" transform="translate(-413.01 -548.997)" fill="#fff" stroke="#000" stroke-linejoin="round" stroke-width="1.79"/>
      <path id="Path_3834" data-name="Path 3834" d="M427.783,573.088v7.931h8.591a3.3,3.3,0,1,1,0,6.609h-9.912" transform="translate(-415.201 -548.576)" fill="#fff" stroke="#000" stroke-linejoin="round" stroke-width="1.79"/>
    </g>
    <g id="Group_1555" data-name="Group 1555" transform="translate(1146.132 6762.182)">
      <path id="Path_3835" data-name="Path 3835" d="M497.288,516.677a3.493,3.493,0,0,1,3.483,3.484v24.384a3.483,3.483,0,0,1-3.483,3.484h-15a3.484,3.484,0,0,0-2.417.974l-9.241,8.9a1.742,1.742,0,0,1-2.95-1.254v-6.881a1.742,1.742,0,0,0-1.742-1.742h-3.484a3.494,3.494,0,0,1-3.484-3.484V520.161a3.484,3.484,0,0,1,3.484-3.484Z" transform="translate(-458.968 -516.677)" fill="none" stroke="#000" stroke-linejoin="round" stroke-width="1.79"/>
      <g id="Group_1554" data-name="Group 1554" transform="translate(9.541 13.631)">
        <circle id="Ellipse_119" data-name="Ellipse 119" cx="1.893" cy="1.893" r="1.893" transform="translate(9.467)" fill="#e63c3b"/>
        <circle id="Ellipse_120" data-name="Ellipse 120" cx="1.893" cy="1.893" r="1.893" transform="translate(18.935)" fill="#e63c3b"/>
        <circle id="Ellipse_121" data-name="Ellipse 121" cx="1.893" cy="1.893" r="1.893" fill="#e63c3b"/>
      </g>
    </g>
    <path id="Path_3836" data-name="Path 3836" d="M498.121,521.069h35.186a5.75,5.75,0,0,1,5.749,5.749v58.362a5.75,5.75,0,0,1-5.749,5.749H481.278" transform="translate(689.814 6246.026)" fill="none" stroke="#000" stroke-linejoin="round" stroke-width="1.79"/>
    <path id="Path_3837" data-name="Path 3837" d="M421.222,580.115v-53.3a5.75,5.75,0,0,1,5.749-5.749h36.136" transform="translate(682.681 6246.026)" fill="none" stroke="#000" stroke-linejoin="round" stroke-width="1.79"/>
    <g id="Group_1557" data-name="Group 1557" transform="translate(1215.256 6787.439)">
      <rect id="Rectangle_369" data-name="Rectangle 369" width="24.24" height="24.24" rx="1.73" fill="#fff" stroke="#000" stroke-linejoin="round" stroke-width="1.79"/>
      <g id="Group_1556" data-name="Group 1556" transform="translate(7.167 7.388)">
        <circle id="Ellipse_122" data-name="Ellipse 122" cx="2.409" cy="2.409" r="2.409" transform="translate(2.544 -1)" fill="#e63c3b"/>
        <path id="Path_3838" data-name="Path 3838" d="M530.14,550a4.953,4.953,0,0,0-4.953,4.953h9.906A4.953,4.953,0,0,0,530.14,550Z" transform="translate(-525.187 -545.49)" fill="#e63c3b"/>
      </g>
    </g>
    <circle id="Ellipse_123" data-name="Ellipse 123" cx="13.108" cy="13.108" r="13.108" transform="translate(1183.693 6821.327)" fill="#fff" stroke="#000" stroke-linejoin="round" stroke-width="1.79"/>
    <line id="Line_922" data-name="Line 922" x2="42.229" transform="translate(1103.904 6779.837)" fill="none" stroke="#000" stroke-linejoin="round" stroke-width="1.79"/>
    <line id="Line_923" data-name="Line 923" x2="40.554" transform="translate(1188.029 6779.837)" fill="none" stroke="#000" stroke-linejoin="round" stroke-width="1.79"/>
  </g>
</svg>
