<svg xmlns="http://www.w3.org/2000/svg" width="134.216" height="79.282" viewBox="0 0 134.216 79.282">
  <g id="Group_1726" data-name="Group 1726" transform="translate(-1446.654 -6482.148)">
    <g id="Group_1390" data-name="Group 1390" transform="translate(1447.66 6483.155)">
      <path id="Path_3607" data-name="Path 3607" d="M1550.892,352.45h-73.1a4.247,4.247,0,0,1-4.247-4.247V301.638a4.247,4.247,0,0,1,4.247-4.247h73.1a4.247,4.247,0,0,1,4.247,4.247V348.2A4.247,4.247,0,0,1,1550.892,352.45Z" transform="translate(-1473.548 -297.391)" fill="#fff" stroke="#000" stroke-miterlimit="10" stroke-width="2.013"/>
      <rect id="Rectangle_297" data-name="Rectangle 297" width="45.354" height="62.152" rx="1.768" transform="translate(75.091 15.118)" fill="#fff" stroke="#000" stroke-miterlimit="10" stroke-width="2.013"/>
      <line id="Line_908" data-name="Line 908" y1="20.157" transform="translate(40.796 55.432)" fill="#fff" stroke="#000" stroke-miterlimit="10" stroke-width="2.013"/>
      <line id="Line_909" data-name="Line 909" x2="38.635" transform="translate(21.478 77.269)" fill="#fff" stroke="#000" stroke-linecap="round" stroke-miterlimit="10" stroke-width="2.013"/>
      <rect id="Rectangle_298" data-name="Rectangle 298" width="23.517" height="32.227" rx="1.768" transform="translate(108.687 45.043)" fill="#fff" stroke="#000" stroke-miterlimit="10" stroke-width="2.013"/>
    </g>
    <g id="Group_1391" data-name="Group 1391" transform="translate(1457.794 6487.86)">
      <ellipse id="Ellipse_73" data-name="Ellipse 73" cx="2.912" cy="2.912" rx="2.912" ry="2.912" transform="translate(8.577 15.53)" fill="#fff" stroke="#e63c3b" stroke-miterlimit="10" stroke-width="2.013"/>
      <ellipse id="Ellipse_74" data-name="Ellipse 74" cx="2.912" cy="2.912" rx="2.912" ry="2.912" transform="translate(20.225 5.824)" fill="#fff" stroke="#e63c3b" stroke-miterlimit="10" stroke-width="2.013"/>
      <ellipse id="Ellipse_75" data-name="Ellipse 75" cx="2.912" cy="2.912" rx="2.912" ry="2.912" transform="translate(31.873 9.706)" fill="#fff" stroke="#e63c3b" stroke-miterlimit="10" stroke-width="2.013"/>
      <ellipse id="Ellipse_76" data-name="Ellipse 76" cx="2.912" cy="2.912" rx="2.912" ry="2.912" transform="translate(43.52)" fill="#fff" stroke="#e63c3b" stroke-miterlimit="10" stroke-width="2.013"/>
      <line id="Line_910" data-name="Line 910" x1="7.194" y2="5.995" transform="translate(13.716 10.591)" fill="#fff" stroke="#000" stroke-miterlimit="10" stroke-width="2.013"/>
      <line id="Line_911" data-name="Line 911" x1="6.147" y1="2.049" transform="translate(25.887 9.653)" fill="#fff" stroke="#000" stroke-miterlimit="10" stroke-width="2.013"/>
      <line id="Line_912" data-name="Line 912" x1="7.194" y2="5.995" transform="translate(37.012 4.768)" fill="#fff" stroke="#000" stroke-miterlimit="10" stroke-width="2.013"/>
      <line id="Line_913" data-name="Line 913" x2="57.922" transform="translate(0 42.302)" fill="#fff" stroke="#000" stroke-miterlimit="10" stroke-width="2.013"/>
      <line id="Line_914" data-name="Line 914" y1="17.466" transform="translate(11.489 25.777)" fill="none" stroke="#000" stroke-miterlimit="10" stroke-width="2.013"/>
      <line id="Line_915" data-name="Line 915" y1="27.713" transform="translate(23.137 15.53)" fill="none" stroke="#000" stroke-miterlimit="10" stroke-width="2.013"/>
      <line id="Line_916" data-name="Line 916" y1="24.802" transform="translate(34.785 18.442)" fill="none" stroke="#000" stroke-miterlimit="10" stroke-width="2.013"/>
      <line id="Line_917" data-name="Line 917" y1="34.508" transform="translate(46.432 8.736)" fill="none" stroke="#000" stroke-miterlimit="10" stroke-width="2.013"/>
    </g>
  </g>
</svg>
