<svg xmlns="http://www.w3.org/2000/svg" width="127.051" height="109.262" viewBox="0 0 127.051 109.262">
  <g id="Group_1727" data-name="Group 1727" transform="translate(-1106.361 -6466.841)">
    <g id="Group_1383" data-name="Group 1383" transform="translate(1107.295 6467.777)">
      <g id="Group_1379" data-name="Group 1379" transform="translate(0 0.014)">
        <g id="Group_1378" data-name="Group 1378">
          <g id="Group_1377" data-name="Group 1377">
            <path id="Path_3597" data-name="Path 3597" d="M1367.541,330.325l-51.413,6.51a2.971,2.971,0,0,1-3.446-3.01V297.009a3.085,3.085,0,0,1,3.446-3.124l51.413,4.808c1.9.179,3.447,1.412,3.447,2.756v26.005C1370.988,328.8,1369.444,330.084,1367.541,330.325Z" transform="translate(-1312.682 -293.87)" fill="#fff" stroke="#000" stroke-miterlimit="10" stroke-width="1.868"/>
          </g>
        </g>
      </g>
      <g id="Group_1382" data-name="Group 1382" transform="translate(66.877)">
        <g id="Group_1381" data-name="Group 1381">
          <g id="Group_1380" data-name="Group 1380">
            <path id="Path_3598" data-name="Path 3598" d="M1433.782,336.841l-51.413-6.417c-1.9-.238-3.446-1.533-3.446-2.894V301.221c0-1.36,1.543-2.6,3.446-2.769l51.413-4.582a3.1,3.1,0,0,1,3.447,3.139v36.816A2.978,2.978,0,0,1,1433.782,336.841Z" transform="translate(-1378.923 -293.856)" fill="#fff" stroke="#000" stroke-miterlimit="10" stroke-width="1.868"/>
          </g>
        </g>
      </g>
    </g>
    <g id="Group_1385" data-name="Group 1385" transform="translate(1137.297 6496.375)">
      <g id="Group_1384" data-name="Group 1384">
        <rect id="Rectangle_296" data-name="Rectangle 296" width="65.178" height="42.183" rx="3.413" fill="#fff" stroke="#000" stroke-miterlimit="10" stroke-width="1.868"/>
      </g>
    </g>
    <g id="Group_1388" data-name="Group 1388" transform="translate(1142.743 6520.079)">
      <g id="Group_1386" data-name="Group 1386" transform="translate(4.395 22.941)">
        <path id="Path_3599" data-name="Path 3599" d="M1352.146,390.048l.978-2.868.99-8.624c.245-3.593,3.133-6.682,5.856-8.269a32.692,32.692,0,0,1,4.119-1.9" transform="translate(-1352.146 -368.384)" fill="none" stroke="#343844" stroke-miterlimit="10" stroke-width="1.868"/>
        <path id="Path_3600" data-name="Path 3600" d="M1374.755,385.023c-1.474,4.319-5.282,6.8-7.125,6.993l-.978,2.868" transform="translate(-1352.006 -368.224)" fill="none" stroke="#343844" stroke-miterlimit="10" stroke-width="1.868"/>
      </g>
      <path id="Path_3601" data-name="Path 3601" d="M1347.793,394.139l1.768-5.185,20.018,6.828-1.768,5.185" transform="translate(-1347.793 -345.245)" fill="none" stroke="#343844" stroke-miterlimit="10" stroke-width="1.868"/>
      <g id="Group_1387" data-name="Group 1387" transform="translate(13.1)">
        <path id="Path_3602" data-name="Path 3602" d="M1386.984,351.137a18.517,18.517,0,0,0-26.216-.076" transform="translate(-1360.768 -345.661)" fill="none" stroke="#e63c3b" stroke-miterlimit="10" stroke-width="1.868"/>
        <path id="Path_3603" data-name="Path 3603" d="M1383.863,354.171a14.16,14.16,0,0,0-20.049-.058" transform="translate(-1360.739 -345.619)" fill="none" stroke="#e63c3b" stroke-miterlimit="10" stroke-width="1.868"/>
        <path id="Path_3604" data-name="Path 3604" d="M1364.314,375.266l-.326-11.169a9.819,9.819,0,0,1,9.848-9.791h0a9.819,9.819,0,0,1,9.791,9.847l-.052,18.265a2.924,2.924,0,0,1-2.933,2.917l-13.824-.039" transform="translate(-1360.737 -345.578)" fill="#fff" stroke="#343844" stroke-miterlimit="10" stroke-width="1.868"/>
        <path id="Path_3605" data-name="Path 3605" d="M1370.472,364.053a3.273,3.273,0,1,0,3.282-3.263A3.272,3.272,0,0,0,1370.472,364.053Z" transform="translate(-1360.675 -345.516)" fill="none" stroke="#343844" stroke-miterlimit="10" stroke-width="1.868"/>
      </g>
    </g>
    <path id="Path_3606" data-name="Path 3606" d="M1359.65,378.958l7.855-6.444a2.859,2.859,0,0,1,4.667,2h0a2.857,2.857,0,0,1-1.027,2.409l-4.806,3.963a7.453,7.453,0,0,1-1.33,7.058" transform="translate(-204.936 6174.67)" fill="none" stroke="#343844" stroke-miterlimit="10" stroke-width="1.868"/>
  </g>
</svg>
